<svg width="94" height="94" viewBox="0 0 94 94" fill="none" xmlns="http://www.w3.org/2000/svg">
<circle cx="47" cy="47" r="47" fill="#2387C0" fill-opacity="0.3"/>
<circle cx="47" cy="47" r="37" fill="#2387C0"/>
<path d="M57.5 36.6431H52.8516V35.4553C52.8516 34.4835 52.5143 33.6647 51.8398 32.9988C51.1654 32.3329 50.3359 32 49.3516 32H44.6484C43.6641 32 42.8346 32.3329 42.1602 32.9988C41.4857 33.6647 41.1484 34.4835 41.1484 35.4553V36.6431H36.5C35.5156 36.6431 34.6862 36.967 34.0117 37.6149C33.3372 38.2628 33 39.0906 33 40.0984V44.6875C33 45.4434 33.3828 45.8213 34.1484 45.8213V55.0535C34.1484 55.6653 34.3854 56.2052 34.8594 56.6731C35.3333 57.141 35.8802 57.375 36.5 57.375H57.5C58.1198 57.375 58.6667 57.141 59.1406 56.6731C59.6146 56.2052 59.8516 55.6653 59.8516 55.0535V45.8213C60.6172 45.8213 61 45.4434 61 44.6875V40.0984C61 39.0906 60.6628 38.2628 59.9883 37.6149C59.3138 36.967 58.4844 36.6431 57.5 36.6431ZM43.5 35.4553C43.5 35.1314 43.6094 34.8614 43.8281 34.6455C44.0469 34.4295 44.3203 34.3215 44.6484 34.3215H49.3516C49.6797 34.3215 49.9531 34.4295 50.1719 34.6455C50.3906 34.8614 50.5 35.1314 50.5 35.4553V36.6431H43.5V35.4553ZM36.5 55.0535V45.8213H43.5V49.2766C43.5 49.9245 43.7279 50.4734 44.1836 50.9233C44.6393 51.3732 45.1953 51.5981 45.8516 51.5981H48.1484C48.8047 51.5981 49.3607 51.3732 49.8164 50.9233C50.2721 50.4734 50.5 49.9245 50.5 49.2766V45.8213H57.5V55.0535H36.5ZM45.8516 49.2766V45.8213H48.1484V49.2766H45.8516ZM58.6484 43.5537H35.3516V40.0984C35.3516 39.3066 35.7344 38.9106 36.5 38.9106H57.5C58.2656 38.9106 58.6484 39.3066 58.6484 40.0984V43.5537Z" fill="white"/>
</svg>
