<svg width="94" height="94" viewBox="0 0 94 94" fill="none" xmlns="http://www.w3.org/2000/svg">
<circle cx="47" cy="47" r="47" fill="#2387C0" fill-opacity="0.3"/>
<circle cx="47" cy="47" r="37" fill="#2387C0"/>
<path d="M58.7529 32.2813H50.3516C50.0903 32.2811 49.8397 32.3843 49.6543 32.5684L32.8584 49.3643C32.4906 49.7338 32.2842 50.234 32.2842 50.7554C32.2842 51.2768 32.4906 51.7769 32.8584 52.1465L40.8565 60.1445C41.226 60.5123 41.7262 60.7188 42.2476 60.7188C42.7689 60.7188 43.2691 60.5123 43.6387 60.1445L60.4277 43.3555C60.6118 43.1701 60.715 42.9194 60.7149 42.6582V34.25C60.7161 33.9917 60.6663 33.7357 60.5682 33.4967C60.4702 33.2577 60.3258 33.0405 60.1435 32.8575C59.9611 32.6745 59.7444 32.5294 59.5057 32.4305C59.2671 32.3316 59.0113 32.2809 58.7529 32.2813V32.2813Z" stroke="white" stroke-width="3" stroke-linecap="round" stroke-linejoin="round"/>
<path d="M55.25 39.9375C54.8174 39.9375 54.3944 39.8092 54.0347 39.5688C53.675 39.3285 53.3946 38.9868 53.229 38.5871C53.0634 38.1874 53.0201 37.7476 53.1045 37.3232C53.1889 36.8989 53.3973 36.5091 53.7032 36.2032C54.0091 35.8973 54.3989 35.6889 54.8232 35.6045C55.2476 35.5201 55.6874 35.5634 56.0871 35.729C56.4868 35.8946 56.8285 36.175 57.0688 36.5347C57.3092 36.8944 57.4375 37.3174 57.4375 37.75C57.4375 38.3302 57.207 38.8866 56.7968 39.2968C56.3866 39.707 55.8302 39.9375 55.25 39.9375Z" fill="white"/>
</svg>
