<svg width="94" height="94" viewBox="0 0 94 94" fill="none" xmlns="http://www.w3.org/2000/svg">
<circle cx="47" cy="47" r="47" fill="#2387C0" fill-opacity="0.3"/>
<circle cx="47" cy="47" r="37" fill="#2387C0"/>
<path d="M65.6053 42.7031H54.6053C54.4162 42.7031 54.2615 42.8578 54.2615 43.0469V45.1094C54.2615 45.2984 54.4162 45.4531 54.6053 45.4531H65.6053C65.7943 45.4531 65.949 45.2984 65.949 45.1094V43.0469C65.949 42.8578 65.7943 42.7031 65.6053 42.7031ZM59.8475 48.5469H54.6053C54.4162 48.5469 54.2615 48.7016 54.2615 48.8906V50.9531C54.2615 51.1422 54.4162 51.2969 54.6053 51.2969H59.8475C60.0365 51.2969 60.1912 51.1422 60.1912 50.9531V48.8906C60.1912 48.7016 60.0365 48.5469 59.8475 48.5469ZM45.5088 38.8574H43.6482C43.3818 38.8574 43.167 39.0723 43.167 39.3387V49.9949C43.167 50.1496 43.24 50.2914 43.3646 50.3816L49.7627 55.048C49.9775 55.2027 50.2783 55.1598 50.433 54.9449L51.5373 53.4367V53.4324C51.692 53.2176 51.6447 52.9168 51.4299 52.7621L45.9857 48.8262V39.3387C45.99 39.0723 45.7709 38.8574 45.5088 38.8574Z" fill="white"/>
<path d="M59.5813 53.9566H57.0977C56.8571 53.9566 56.6293 54.0812 56.5004 54.2874C55.9547 55.1511 55.3188 55.9503 54.5883 56.6808C53.3293 57.9398 51.8641 58.9281 50.2356 59.6156C48.5469 60.3288 46.7551 60.6898 44.9074 60.6898C43.0555 60.6898 41.2637 60.3288 39.5793 59.6156C37.9508 58.9281 36.4856 57.9398 35.2266 56.6808C33.9676 55.4218 32.9793 53.9566 32.2918 52.3281C31.5785 50.6437 31.2176 48.8519 31.2176 46.9999C31.2176 45.148 31.5785 43.3605 32.2918 41.6718C32.9793 40.0433 33.9676 38.5781 35.2266 37.3191C36.4856 36.0601 37.9508 35.0718 39.5793 34.3843C41.2637 33.671 43.0598 33.3101 44.9074 33.3101C46.7594 33.3101 48.5512 33.671 50.2356 34.3843C51.8641 35.0718 53.3293 36.0601 54.5883 37.3191C55.3188 38.0496 55.9547 38.8488 56.5004 39.7124C56.6293 39.9187 56.8571 40.0433 57.0977 40.0433H59.5813C59.8778 40.0433 60.0668 39.7339 59.9336 39.4718C57.1321 33.8988 51.4516 30.2765 45.1094 30.2035C35.8239 30.0874 28.111 37.6886 28.0938 46.9656C28.0766 56.2597 35.609 63.8007 44.9032 63.8007C51.327 63.8007 57.102 60.1656 59.9336 54.5281C60.0668 54.266 59.8735 53.9566 59.5813 53.9566Z" fill="white"/>
</svg>
