<svg width="94" height="94" viewBox="0 0 94 94" fill="none" xmlns="http://www.w3.org/2000/svg">
<circle cx="47" cy="47" r="47" fill="#2387C0" fill-opacity="0.3"/>
<circle cx="47" cy="47" r="37" fill="#2387C0"/>
<path d="M61.242 38.925C61.2156 38.6589 61.1222 38.4039 60.9705 38.1837C60.8187 37.9636 60.6136 37.7855 60.3743 37.6662L47.7076 31.3329C47.4876 31.2228 47.2451 31.1655 46.9991 31.1655C46.7531 31.1655 46.5105 31.2228 46.2905 31.3329L33.6239 37.6662C33.3852 37.7862 33.1807 37.9644 33.0293 38.1845C32.8779 38.4045 32.7845 38.6592 32.7578 38.925C32.7404 39.0944 31.2362 55.9727 46.357 62.6972C46.5591 62.7883 46.7782 62.8355 46.9999 62.8355C47.2215 62.8355 47.4407 62.7883 47.6427 62.6972C62.7635 55.9727 61.2594 39.096 61.242 38.925ZM46.9999 59.5036C36.2823 54.3229 35.7756 43.2665 35.8627 40.0887L46.9999 34.5202L58.1291 40.0856C58.1877 43.2348 57.6098 54.3641 46.9999 59.5036Z" fill="white"/>
<path d="M45.4163 47.9279L41.7857 44.2973L39.5469 46.5361L45.4163 52.4055L54.4524 43.3694L52.2135 41.1306L45.4163 47.9279Z" fill="white"/>
</svg>
